<?xml version="1.0" encoding="UTF-8" standalone="no"?>
<!-- Created with Inkscape (http://www.inkscape.org/) -->

<svg
   width="197.09161mm"
   height="76.32827mm"
   viewBox="0 0 197.09161 76.32827"
   version="1.1"
   id="svg1"
   xml:space="preserve"
   xmlns="http://www.w3.org/2000/svg"
   xmlns:svg="http://www.w3.org/2000/svg"><defs
     id="defs1" /><g
     id="layer1"
     transform="translate(-2.6408058,-104.74759)"><g
       style="fill:none;stroke:none;stroke-linecap:square;stroke-miterlimit:10"
       id="g24"
       transform="matrix(0.26458333,0,0,0.26458333,-21.325729,83.763498)"><g
         clip-path="url(#g2e4657a6728_0_39.0)"
         id="g23"><path
           fill="#000000"
           fill-opacity="0"
           d="m 299.2756,190.74803 c 0,-51.84909 73.19684,-104.182434 146.39368,-103.69818 73.19687,0.484253 146.3937,53.7861 146.3937,107.57219"
           fill-rule="evenodd"
           id="path3" /><path
           stroke="#4584b6"
           stroke-width="8"
           stroke-linejoin="round"
           stroke-linecap="butt"
           d="m 299.2756,190.74803 c 0,-51.84909 78.42829,-107.919184 151.62513,-107.43493 73.19687,0.484253 141.16225,57.52285 141.16225,111.30894"
           fill-rule="evenodd"
           id="path4" /><path
           fill="#000000"
           fill-opacity="0"
           d="m 299.2756,190.74803 c 0,-25.96063 -19.56696,-51.92914 -39.13388,-51.92127 -19.56692,0.008 -39.13385,25.99213 -39.13385,51.98426"
           fill-rule="evenodd"
           id="path5" /><path
           stroke="#ffde57"
           stroke-width="8"
           stroke-linejoin="round"
           stroke-linecap="butt"
           d="m 299.2756,190.74803 c 0,-25.96063 -19.56696,-51.92914 -39.13388,-51.92127 -19.56692,0.008 -39.13385,25.99213 -39.13385,51.98426"
           fill-rule="evenodd"
           id="path6" /><path
           fill="#000000"
           fill-opacity="0"
           d="m 299.2756,190.74803 c 0,-33.26509 42.33856,-67.01443 84.67716,-66.53017 42.33859,0.48424 84.67715,35.20209 84.67715,70.40418"
           fill-rule="evenodd"
           id="path7" /><path
           stroke="#ffde57"
           stroke-width="8"
           stroke-linejoin="round"
           stroke-linecap="butt"
           d="m 299.2756,190.74803 c 0,-33.26509 42.33856,-67.01443 84.67716,-66.53017 42.33859,0.48424 84.67715,35.20209 84.67715,70.40418"
           fill-rule="evenodd"
           id="path8" /><path
           fill="#000000"
           fill-opacity="0"
           d="m 299.2756,190.74803 c 0,-18.07219 23.04724,-36.62863 46.09448,-36.14438 23.04724,0.48425 46.09448,20.0092 46.09448,40.01839"
           fill-rule="evenodd"
           id="path9" /><path
           stroke="#4584b6"
           stroke-width="8"
           stroke-linejoin="round"
           stroke-linecap="butt"
           d="m 299.2756,190.74803 c 0,-18.07219 23.04724,-36.62863 46.09448,-36.14438 23.04724,0.48425 46.09448,20.0092 46.09448,40.01839"
           fill-rule="evenodd"
           id="path10" /><path
           fill="#000000"
           fill-opacity="0"
           d="m 748.8898,194.62204 v -44.31496 h 82.55115"
           fill-rule="evenodd"
           id="path11" /><path
           stroke="#4584b6"
           stroke-width="8"
           stroke-linejoin="round"
           stroke-linecap="butt"
           d="m 748.8898,194.62204 7.4735,-39.83086 27.07765,-4.4841"
           fill-rule="evenodd"
           id="path12" /><path
           fill="#4584b6"
           stroke="#4584b6"
           stroke-width="8"
           stroke-linecap="butt"
           d="m 787.17765,161.70779 23.13276,-14.70858 -25.74848,-9.5323 z"
           fill-rule="evenodd"
           id="path13" /><path
           fill="#eeeeee"
           d="m 213.30971,198.5748 v 0 c 0,-4.3226 3.44072,-7.82677 7.68504,-7.82677 v 0 c 2.0382,0 3.99292,0.8246 5.43415,2.29241 1.44122,1.4678 2.2509,3.45857 2.2509,5.53436 v 0 c 0,4.32262 -3.44072,7.82678 -7.68505,7.82678 v 0 c -4.24432,0 -7.68504,-3.50416 -7.68504,-7.82678 z"
           fill-rule="evenodd"
           id="path14" /><path
           fill="#eeeeee"
           d="m 291.59055,198.5748 v 0 c 0,-4.3226 3.4407,-7.82677 7.68506,-7.82677 v 0 c 2.03818,0 3.99292,0.8246 5.43414,2.29241 1.44122,1.4678 2.25089,3.45857 2.25089,5.53436 v 0 c 0,4.32262 -3.44071,7.82678 -7.68503,7.82678 v 0 c -4.24436,0 -7.68506,-3.50416 -7.68506,-7.82678 z"
           fill-rule="evenodd"
           id="path15" /><path
           fill="#eeeeee"
           d="m 383.77167,202.44882 v 0 c 0,-4.32262 3.4407,-7.82678 7.68503,-7.82678 v 0 c 2.03821,0 3.99292,0.82461 5.43414,2.29242 1.44122,1.4678 2.25089,3.45857 2.25089,5.53436 v 0 c 0,4.3226 -3.44071,7.82677 -7.68503,7.82677 v 0 c -4.24433,0 -7.68503,-3.50417 -7.68503,-7.82677 z"
           fill-rule="evenodd"
           id="path16" /><path
           fill="#eeeeee"
           d="m 460.92914,202.44882 v 0 c 0,-4.32262 3.4407,-7.82678 7.68503,-7.82678 v 0 c 2.03821,0 3.99292,0.82461 5.43414,2.29242 1.44122,1.4678 2.25092,3.45857 2.25092,5.53436 v 0 c 0,4.3226 -3.44074,7.82677 -7.68506,7.82677 v 0 c -4.24433,0 -7.68503,-3.50417 -7.68503,-7.82677 z"
           fill-rule="evenodd"
           id="path17" /><path
           fill="#eeeeee"
           d="m 584.3884,202.44882 v 0 c 0,-4.32262 3.44073,-7.82678 7.68506,-7.82678 v 0 c 2.03821,0 3.99292,0.82461 5.43414,2.29242 1.44122,1.4678 2.25092,3.45857 2.25092,5.53436 v 0 c 0,4.3226 -3.44074,7.82677 -7.68506,7.82677 v 0 c -4.24433,0 -7.68506,-3.50417 -7.68506,-7.82677 z"
           fill-rule="evenodd"
           id="path18" /><path
           fill="#eeeeee"
           d="m 741.2047,202.44882 v 0 c 0,-4.32262 3.44073,-7.82678 7.68506,-7.82678 v 0 c 2.03821,0 3.99292,0.82461 5.43414,2.29242 1.44122,1.4678 2.25092,3.45857 2.25092,5.53436 v 0 c 0,4.3226 -3.44074,7.82677 -7.68506,7.82677 v 0 c -4.24433,0 -7.68506,-3.50417 -7.68506,-7.82677 z"
           fill-rule="evenodd"
           id="path19" /><path
           fill="#000000"
           fill-opacity="0"
           d="m 748.8898,194.62204 c 0,-32.2034 -39.20471,-64.41469 -78.40948,-64.40682 -39.20472,0.008 -78.40943,32.23491 -78.40943,64.46982"
           fill-rule="evenodd"
           id="path20" /><path
           stroke="#4584b6"
           stroke-width="8"
           stroke-linejoin="round"
           stroke-linecap="butt"
           d="m 748.8898,194.62204 c 0,-32.2034 -39.20471,-64.41469 -78.40948,-64.40682 -39.20472,0.008 -78.40943,32.23491 -78.40943,64.46982"
           fill-rule="evenodd"
           id="path21" /><path
           fill="#000000"
           fill-opacity="0"
           d="M 72.519684,97.732285 H 983.48028 V 440.31498 H 72.519684 Z"
           fill-rule="evenodd"
           id="path22" /><path
           fill="#595959"
           d="m 183.11343,367.79477 c -17.0625,0 -32.61979,-3.42187 -46.67188,-10.26562 -14.04167,-6.84375 -25.19792,-17.10938 -33.46875,-30.79688 -8.260413,-13.6875 -12.39062,-30.93229 -12.39062,-51.73437 0,-15.82291 2.53125,-29.5104 7.59375,-41.06249 5.07291,-11.55208 12.01041,-21.15104 20.8125,-28.79687 8.80208,-7.64583 18.89062,-13.33333 30.26562,-17.0625 11.375,-3.73959 23.28646,-5.60938 35.73438,-5.60938 10.125,0 19.36458,1.11458 27.71875,3.34375 8.36458,2.21875 16.54687,5.55209 24.54687,10 l 1.0625,41.32813 h -20.26562 l -7.73438,-34.9375 c -6.04167,-3.02083 -12.44271,-4.53125 -19.20312,-4.53125 -9.41667,0 -18.17188,2.66667 -26.26563,8 -8.08333,5.33333 -14.61458,13.73437 -19.59375,25.20312 -4.97917,11.46875 -7.46875,26.26562 -7.46875,44.39061 0,18.13542 2.39583,32.84896 7.1875,44.14063 4.80209,11.28125 11.15625,19.58854 19.0625,24.92187 7.91667,5.33333 16.58854,8 26.01563,8 3.72917,0 7.45833,-0.44271 11.1875,-1.32812 3.73958,-0.88542 7.47395,-2.13021 11.20312,-3.73438 l 7.46875,-34.125 h 20.26563 l -1.0625,41.0625 c -7.11459,3.90625 -15.33855,7.14584 -24.67188,9.71875 -9.33333,2.58333 -19.77604,3.875 -31.32812,3.875 z m 73.06326,-165.85936 v -14.39062 h 85.85937 v 14.39062 l -20,2.14063 c -0.17708,10.84375 -0.3125,21.77604 -0.40625,32.79687 -0.0833,11.02083 -0.125,22.1302 -0.125,33.32811 v 9.59375 c 0,11.03125 0.0417,22.10417 0.125,33.21875 0.0937,11.10417 0.22917,22.16667 0.40625,33.1875 l 20,2.125 v 14.40625 h -85.85937 v -14.40625 l 20,-2.125 c 0.35417,-10.84375 0.53125,-21.77604 0.53125,-32.79687 v -33.32813 -9.875 -33.18748 c 0,-11.11459 -0.17708,-22.09375 -0.53125,-32.9375 z m 179.19696,1.0625 h -10.67188 c -0.17708,11.03125 -0.3125,22.01563 -0.40625,32.95313 -0.0833,10.92708 -0.125,21.36457 -0.125,31.31248 h 10.14063 c 8.88541,0 15.8177,-1.51042 20.79687,-4.53125 4.97917,-3.02083 8.53125,-7.02083 10.65625,-11.99998 2.13542,-4.97917 3.20313,-10.3125 3.20313,-16 0,-21.15625 -11.19792,-31.73438 -33.59375,-31.73438 z m -75.73438,-1.0625 v -14.39062 h 86.67188 c 20.96875,0 37.09895,3.91146 48.39062,11.73437 11.29167,7.8125 16.9375,18.65625 16.9375,32.53125 0,5.86459 -1.51042,11.6875 -4.53125,17.46875 -3.02083,5.77083 -8,10.83332 -14.9375,15.18749 -6.9375,4.35417 -16.35937,7.51042 -28.26562,9.46875 10.13541,1.23958 18.04687,3.68229 23.73437,7.32812 5.6875,3.64583 9.95313,8.35938 12.79688,14.14063 2.84375,5.77083 4.89062,12.83854 6.14062,21.20312 l 5.0625,29.59375 c 0,0 15.72011,-2.92207 20.26563,2.125 3.21366,3.56825 0,14.40625 0,14.40625 -4.27083,0.88542 -7.82813,1.64063 -10.67188,2.26563 -2.84375,0.625 -5.64583,1.02604 -8.40625,1.20312 -2.75,0.17709 -6.16667,0.26563 -10.25,0.26563 -11.38541,0 -20.32291,-1.95313 -26.8125,-5.85938 -6.47917,-3.91667 -10.43229,-11.03125 -11.85937,-21.34375 l -4.79688,-30.92187 c -1.25,-8.89583 -3.78646,-15.47396 -7.60937,-19.73438 -3.82292,-4.27083 -9.72917,-6.40625 -17.71875,-6.40625 h -9.60938 c 0,11.375 0.0417,22.30729 0.125,32.79688 0.0937,10.48958 0.22917,20.89062 0.40625,31.20312 l 20.79688,2.125 v 14.40625 h -85.85938 v -14.40625 l 20,-2.125 c 0.35417,-10.84375 0.53125,-21.77604 0.53125,-32.79687 v -33.32813 -9.875 -33.18748 c 0,-11.11459 -0.17708,-22.09375 -0.53125,-32.9375 z m 259.58972,165.85936 c -17.0625,0 -32.61979,-3.42187 -46.67187,-10.26562 -14.04167,-6.84375 -25.19792,-17.10938 -33.46875,-30.79688 -8.26042,-13.6875 -12.39063,-30.93229 -12.39063,-51.73437 0,-15.82291 2.53125,-29.5104 7.59375,-41.06249 5.07292,-11.55208 12.01042,-21.15104 20.8125,-28.79687 8.80209,-7.64583 18.89063,-13.33333 30.26563,-17.0625 11.375,-3.73959 23.28646,-5.60938 35.73437,-5.60938 10.125,0 19.36458,1.11458 27.71875,3.34375 8.36459,2.21875 16.54688,5.55209 24.54688,10 l 1.0625,41.32813 h -20.26563 l -7.73437,-34.9375 c -6.04167,-3.02083 -12.44271,-4.53125 -19.20313,-4.53125 -9.41667,0 -18.17187,2.66667 -26.26562,8 -8.08333,5.33333 -14.61458,13.73437 -19.59375,25.20312 -4.97917,11.46875 -7.46875,26.26562 -7.46875,44.39061 0,18.13542 2.39583,32.84896 7.1875,44.14063 4.80208,11.28125 11.15625,19.58854 19.0625,24.92187 7.91667,5.33333 16.58854,8 26.01562,8 3.72917,0 7.45833,-0.44271 11.1875,-1.32812 3.73959,-0.88542 7.47396,-2.13021 11.20313,-3.73438 l 7.46875,-34.125 h 20.26562 l -1.0625,41.0625 c -7.11458,3.90625 -15.33854,7.14584 -24.67187,9.71875 -9.33333,2.58333 -19.77604,3.875 -31.32813,3.875 z m 73.06329,-165.85936 v -14.39062 h 136 l 1.85938,45.85937 h -22.125 l -5.34375,-30.9375 h -44.53125 c -0.17709,10.13542 -0.3125,20.35938 -0.40625,30.67188 -0.0833,10.3125 -0.125,20.71354 -0.125,31.20311 h 28.79687 l 3.20313,-20.79686 h 15.46875 v 57.32811 h -15.46875 l -3.20313,-20.79688 h -28.79687 c 0,12.26042 0.0417,23.90105 0.125,34.92188 0.0937,11.02083 0.22916,21.95312 0.40625,32.79687 h 49.875 l 5.32812,-30.92187 h 22.14063 l -1.875,45.85937 H 692.29229 v -14.40625 l 20,-2.125 c 0.35417,-10.84375 0.53125,-21.77604 0.53125,-32.79687 v -33.32813 -9.875 -33.18748 c 0,-11.11459 -0.17708,-22.09375 -0.53125,-32.9375 l -20,-2.14063 z"
           fill-rule="nonzero"
           id="path23" /></g></g></g></svg>
